<svg xmlns="http://www.w3.org/2000/svg" xmlns:svg="http://www.w3.org/2000/svg" id="svg8" width="120" height="60" version="1.1" viewBox="0 0 31.75 15.875"><defs id="defs2"><style id="style1180"/></defs><metadata id="metadata5"/><g id="layer1"><path id="path866-4-9-5-7-2-6" d="m 14.552049,3.9687485 v 3.96875 c 0,1.2036557 -0.804213,2.2180815 -1.904277,2.5388615 -0.272142,0.373521 -0.606659,0.703316 -1.009757,0.96325 -0.288377,0.205878 -0.591757,0.356614 -0.905889,0.466638 h 1.17409 c 2.19188,0 3.96875,-1.77687 3.96875,-3.9687495 v -3.96875 z" style="fill:#2bbbd9;fill-opacity:1;stroke:#fc0;stroke-width:0;stroke-miterlimit:17.5;stroke-dasharray:none;stroke-opacity:.991968"/><path id="path866-4-9-5-0-0-1" d="m 11.906216,3.9687485 v 3.96875 c 0,1.213313 -0.8175,2.2335005 -1.9311487,2.5455795 -0.484537,0.634762 -1.141471,1.137693 -1.8856729,1.42317 h 1.1709879 c 2.1918797,0 3.9687497,-1.77687 3.9687497,-3.9687495 v -3.96875 z" style="fill:#2d94e3;fill-opacity:1;stroke:#fc0;stroke-width:0;stroke-miterlimit:17.5;stroke-dasharray:none;stroke-opacity:.991968"/><path id="path969-2-2-9-3" d="m 6.584576,3.9687493 a 3.96875,3.96875 0 0 0 -3.938777,3.96875 3.96875,3.96875 0 0 0 3.96875,3.9687497 3.96875,3.96875 0 0 0 3.968749,-3.9687497 3.96875,3.96875 0 0 0 -3.968749,-3.96875 3.96875,3.96875 0 0 0 -0.02997,0 z m 0.02481,1.322916 a 2.6458333,2.6458333 0 0 1 0.0052,0 2.6458333,2.6458333 0 0 1 2.6458293,2.645834 A 2.6458333,2.6458333 0 0 1 6.614583,10.583333 2.6458333,2.6458333 0 0 1 3.96875,7.9374993 2.6458333,2.6458333 0 0 1 6.609416,5.2916653 Z" style="fill:#3260cc;fill-opacity:1;stroke:#fc0;stroke-width:0;stroke-miterlimit:17.5;stroke-dasharray:none;stroke-opacity:.991968"/><text style="font-style:normal;font-variant:normal;font-weight:600;font-stretch:normal;font-size:2.93133px;line-height:1;font-family:Poppins;-inkscape-font-specification:'Poppins Semi-Bold';fill:#3260cc;fill-opacity:1;stroke-width:.0732836" id="text845" x="17.086" y="6.024" xml:space="preserve"><tspan id="tspan843" x="17.086" y="6.024" style="font-style:normal;font-variant:normal;font-weight:600;font-stretch:normal;font-family:Poppins;-inkscape-font-specification:'Poppins Semi-Bold';fill:#3260cc;fill-opacity:1;stroke-width:.0732836">Open</tspan></text><text id="text845-2" x="17.086" y="8.966" xml:space="preserve" style="font-style:normal;font-variant:normal;font-weight:600;font-stretch:normal;font-size:2.93132px;line-height:1;font-family:Poppins;-inkscape-font-specification:'Poppins Semi-Bold';fill:#2d94e3;fill-opacity:1;stroke-width:.0732835"><tspan id="tspan853-9" x="17.086" y="8.966" style="font-style:normal;font-variant:normal;font-weight:600;font-stretch:normal;font-family:Poppins;-inkscape-font-specification:'Poppins Semi-Bold';fill:#2d94e3;fill-opacity:1;stroke-width:.0732835">Unreal</tspan></text><text style="font-style:normal;font-variant:normal;font-weight:600;font-stretch:normal;font-size:2.93132px;line-height:1;font-family:Poppins;-inkscape-font-specification:'Poppins Semi-Bold';fill:#2bbbd9;fill-opacity:1;stroke-width:.0732835" id="text845-2-1" x="17.086" y="11.884" xml:space="preserve"><tspan style="font-style:normal;font-variant:normal;font-weight:600;font-stretch:normal;font-family:Poppins;-inkscape-font-specification:'Poppins Semi-Bold';fill:#2bbbd9;fill-opacity:1;stroke-width:.0732835" id="tspan853-9-7" x="17.086" y="11.884">Utilities</tspan></text></g></svg>